<svg width="2350" height="338" viewBox="0 0 2350 338" fill="none" xmlns="http://www.w3.org/2000/svg">
<path d="M168.9 46.3491H74.6924V72.3695H90.142V212.461H116.162V178.193H162.046C191.319 178.193 208.976 167.042 218.617 157.749C231.163 145.668 238.133 129.289 238.133 111.632C238.133 94.5565 231.744 78.6422 220.128 66.6775C211.183 57.3845 195.037 46.3491 168.9 46.3491ZM200.612 139.163C191.784 147.759 178.425 152.289 162.163 152.289H116.162V72.4856H168.9C198.521 72.4856 212.112 92.814 212.112 111.748C212.112 122.203 208.047 131.961 200.612 139.163Z" fill="white"/>
<path d="M205.375 311.315H116.162V278.674H90.142V311.315H74.6924V337.452H231.395V294.704H205.375V311.315Z" fill="white"/>
<path d="M192.365 214.436H166.228V231.744H41.4699V26.0204H57.0357V0H0.232325V26.0204H15.4496V231.744H0V257.88H192.365V214.436Z" fill="white"/>
<g clip-path="url(#clip0_117_918)">
<path d="M1217.89 117V176.369V235.737H1289.75L1303.96 221.552V183.724L1296.59 176.369L1303.96 169.013V131.185L1289.75 117H1217.89ZM1286.32 214.722L1282.38 218.662H1235.26V185.038H1282.38L1286.59 189.241V214.722H1286.32ZM1286.32 163.759L1282.11 167.962H1235V134.338H1282.11L1286.06 138.278V163.759H1286.32Z" fill="white"/>
<path d="M984.409 117V236H1001.78V185.038L1056.27 184.775L1070.22 170.852V131.185L1056 117H984.409ZM1052.85 163.759L1048.9 167.7L1001.78 167.962V134.338H1048.9L1052.85 138.278V163.759Z" fill="white"/>
<path d="M2221.28 185.038L2235.24 171.115V131.185L2221.02 117H2149.42V236H2166.8V185.038H2183.91L2221.02 236H2242.34L2205.23 185.038H2221.28ZM2166.8 167.7V134.338H2213.91L2217.86 138.278V163.759L2213.91 167.7H2166.8Z" fill="white"/>
<path d="M602.737 117L588.523 131.185V221.815L602.737 236H660.383L674.334 221.815V201.85H657.224V214.722L653.013 218.662H609.844L605.896 214.722V138.278L609.844 134.338H653.013L657.224 138.278V151.15H674.334V131.185L660.383 117H602.737Z" fill="white"/>
<path d="M1547.97 117L1533.75 131.185V221.815L1547.97 236H1605.61L1619.56 221.815V201.85H1602.19V214.722L1598.24 218.662H1555.07L1551.12 214.722V138.278L1555.07 134.338H1598.24L1602.19 138.278V151.15H1619.56V131.185L1605.61 117H1547.97Z" fill="white"/>
<path d="M1727.48 236H1804.61V218.925H1744.85V185.038H1792.5V167.7H1744.85V134.6H1804.61V117.263H1727.48V236Z" fill="white"/>
<path d="M490.606 117L476.392 131.185V221.815L490.606 236H548.251L562.465 221.815V131.185L547.988 117H490.606ZM544.829 214.722L540.881 218.662H497.713L493.764 214.722V138.278L497.713 134.338H540.881L544.829 138.278V214.722Z" fill="white"/>
<path d="M1166.29 214.722L1162.08 218.662H1118.91L1114.97 214.722V117H1097.86V221.815L1111.81 236H1169.45L1183.4 221.815V117H1166.29V214.722Z" fill="white"/>
<path d="M396.373 117H379V236H456.124V218.662H396.373V117Z" fill="white"/>
<path d="M839.111 117H821.738V236H898.862V218.662H839.111V117Z" fill="white"/>
<path d="M1353.97 117H1336.86V236H1413.72V218.662H1353.97V117Z" fill="white"/>
<path d="M2043.61 236H2120.73V218.925H2060.98V185.038H2108.63V167.7H2060.98V134.6H2120.73V117.263H2043.61V236Z" fill="white"/>
<path d="M1429.25 134.338H1458.21V218.4H1429.25V235.737H1504.53V218.4H1475.58V134.338H1504.53V117H1429.25V134.338Z" fill="white"/>
<path d="M1932.27 134.338H1966.49V236H1983.6V134.338H2017.81V117H1932.27V134.338Z" fill="white"/>
<path d="M2329.47 117L2299.99 163.497L2270.51 117H2249.98L2291.3 182.148V236H2308.67V182.148L2350 117H2329.47Z" fill="white"/>
<path d="M726.452 117L690.917 236H709.079L719.082 202.375H768.83L778.833 236H796.995L761.46 117H726.452ZM724.346 185.038L739.613 134.338H748.562L763.829 185.038H724.346Z" fill="white"/>
<path d="M1860.67 117L1825.14 236H1843.3L1853.3 202.375H1903.05L1913.05 236H1931.22L1895.42 117H1860.67ZM1858.3 185.038L1873.57 134.338H1882.52L1897.79 185.038H1858.3Z" fill="white"/>
</g>
<defs>
<clipPath id="clip0_117_918">
<rect width="1971" height="119" fill="white" transform="translate(379 117)"/>
</clipPath>
</defs>
</svg>
